Jump_normalized_pl06_filtered_grf
version=1
nRows=12
nColumns=37
inDegrees=yes
endheader
time		1_ground_force_vx		1_ground_force_vy		1_ground_force_vz		1_ground_force_px		1_ground_force_py		1_ground_force_pz		1_ground_torque_x		1_ground_torque_y		1_ground_torque_z		2_ground_force_vx		2_ground_force_vy		2_ground_force_vz		2_ground_force_px		2_ground_force_py		2_ground_force_pz		2_ground_torque_x		2_ground_torque_y		2_ground_torque_z		3_ground_force_vx		3_ground_force_vy		3_ground_force_vz		3_ground_force_px		3_ground_force_py		3_ground_force_pz		3_ground_torque_x		3_ground_torque_y		3_ground_torque_z		4_ground_force_vx		4_ground_force_vy		4_ground_force_vz		4_ground_force_px		4_ground_force_py		4_ground_force_pz		4_ground_torque_x		4_ground_torque_y		4_ground_torque_z		
0.317000		-0.000000		0.000000		0.000000		0.165178		0.000000		0.161360		0.000000		0.000000		-0.000000		0.000000		0.000000		0.000000		-0.234587		0.000000		0.187931		0.000000		-0.000000		0.000000		-101.272899		655.486373		82.878572		0.413200		1.261663		1.875871		5.677537		-36.747721		-4.646319		115.510037		807.877841		68.577330		-0.354809		1.255138		1.903128		6.354147		44.440940		3.772403		
0.319500		-0.000000		0.000000		0.000000		0.165178		0.000000		0.161360		0.000000		0.000000		-0.000000		0.000000		0.000000		0.000000		-0.234587		0.000000		0.187931		0.000000		-0.000000		0.000000		-102.386013		662.004536		81.862314		0.413218		1.261646		1.875914		5.752384		-37.193602		-4.599295		116.596911		813.033914		67.826509		-0.354811		1.255143		1.903188		6.424448		44.797878		3.737216		
0.322000		-0.000000		0.000000		0.000000		0.165178		0.000000		0.161360		0.000000		0.000000		-0.000000		0.000000		0.000000		0.000000		-0.234587		0.000000		0.187931		0.000000		-0.000000		0.000000		-103.367464		668.191091		80.807069		0.413234		1.261634		1.875963		5.820749		-37.626664		-4.550346		117.667962		817.842261		66.976170		-0.354812		1.255149		1.903248		6.494587		45.140136		3.696695		
0.324500		-0.000000		0.000000		0.000000		0.165178		0.000000		0.161360		0.000000		0.000000		-0.000000		0.000000		0.000000		0.000000		-0.234587		0.000000		0.187931		0.000000		-0.000000		0.000000		-104.216015		673.968411		79.700733		0.413248		1.261625		1.876019		5.882521		-38.042454		-4.498744		118.723146		822.279137		66.010748		-0.354812		1.255156		1.903305		6.564530		45.466079		3.649916		
0.327000		-0.000000		0.000000		0.000000		0.165178		0.000000		0.161360		0.000000		0.000000		-0.000000		0.000000		0.000000		0.000000		-0.234587		0.000000		0.187931		0.000000		-0.000000		0.000000		-104.935618		679.264255		78.529465		0.413261		1.261619		1.876081		5.937843		-38.436561		-4.443635		119.763624		826.325419		64.916918		-0.354813		1.255163		1.903361		6.634295		45.774220		3.596067		
0.329500		-0.000000		0.000000		0.000000		0.165178		0.000000		0.161360		0.000000		0.000000		-0.000000		0.000000		0.000000		0.000000		-0.234587		0.000000		0.187931		0.000000		-0.000000		0.000000		-105.534599		684.014617		77.278436		0.413273		1.261616		1.876150		5.987071		-38.804751		-4.384074		120.791622		829.965148		63.683121		-0.354814		1.255170		1.903415		6.703953		46.063191		3.534423		
0.332000		-0.000000		0.000000		0.000000		0.165178		0.000000		0.161360		0.000000		0.000000		-0.000000		0.000000		-0.000000		-0.000000		-0.234587		0.000000		0.187931		-0.000000		0.000000		-0.000000		-106.024738		688.166267		75.932870		0.413284		1.261616		1.876223		6.030720		-39.143110		-4.319085		121.810024		833.183946		62.298978		-0.354815		1.255176		1.903468		6.773617		46.331729		3.464324		
0.334500		-0.000000		-0.000000		-0.000000		0.165178		0.000000		0.161360		-0.000000		-0.000000		0.000000		-0.000000		-0.000000		-0.000000		-0.234587		0.000000		0.187931		-0.000000		0.000000		-0.000000		-106.420332		691.678857		74.479220		0.413295		1.261619		1.876300		6.069417		-39.448169		-4.247736		122.821713		835.967662		60.754821		-0.354817		1.255182		1.903519		6.843413		46.578673		3.385154		
0.337000		0.000000		-0.000000		-0.000000		0.165178		0.000000		0.161360		-0.000000		-0.000000		0.000000		-0.000000		-0.000000		-0.000000		-0.234587		0.000000		0.187931		-0.000000		0.000000		-0.000000		-106.737350		694.526465		72.906285		0.413305		1.261623		1.876381		6.103857		-39.717030		-4.169202		123.828708		838.301476		59.041406		-0.354820		1.255186		1.903568		6.913449		46.802999		3.296326		
0.339500		0.000000		-0.000000		-0.000000		0.165178		0.000000		0.161360		-0.000000		-0.000000		0.000000		-0.000000		-0.000000		-0.000000		-0.234587		0.000000		0.187931		-0.000000		0.000000		-0.000000		-106.992760		696.698400		71.206147		0.413313		1.261630		1.876464		6.134775		-39.947453		-4.082834		124.831220		840.169582		57.149772		-0.354823		1.255190		1.903616		6.983771		47.003880		3.197284		
0.342000		0.000000		-0.000000		-0.000000		0.165178		0.000000		0.161360		-0.000000		-0.000000		0.000000		-0.000000		-0.000000		-0.000000		-0.234587		0.000000		0.187931		-0.000000		0.000000		-0.000000		-107.203974		698.199149		69.374841		0.413320		1.261638		1.876549		6.162919		-40.137923		-3.988206		125.826822		841.555456		55.071193		-0.354827		1.255194		1.903663		7.054321		47.180738		3.087497		
0.344500		0.000000		-0.000000		-0.000000		0.165178		0.000000		0.161360		-0.000000		-0.000000		0.000000		-0.000000		-0.000000		-0.000000		-0.234587		0.000000		0.187931		-0.000000		0.000000		-0.000000		-107.388344		699.047420		67.412762		0.413325		1.261647		1.876633		6.189033		-40.287683		-3.885150		126.809948		842.442694		52.797140		-0.354831		1.255198		1.903709		7.124915		47.333296		2.966448		
